<svg width="132" height="56" viewBox="0 0 132 56" fill="none" xmlns="http://www.w3.org/2000/svg">
<path d="M22.2372 12.5325H9.68545V13.4984H22.2372V12.5325Z" fill="white"/>
<path d="M20.0066 11.0587H11.9139V13.2839H20.0066V11.0587Z" fill="white"/>
<path d="M20.0066 6.5202H11.9139V8.74539H20.0066V6.5202Z" fill="white"/>
<path d="M13.0539 8.45613H11.914L11.9139 11.0587L13.0539 11.0585V8.45613Z" fill="white"/>
<path d="M15.392 8.45613H14.2521V11.0585H15.392V8.45613Z" fill="white"/>
<path d="M17.6707 8.45613H16.5309V11.0585H17.6707V8.45613Z" fill="white"/>
<path d="M20.0078 8.45613H18.8679V11.0585H20.0078V8.45613Z" fill="white"/>
<path d="M20.771 6.98752V6.16367L15.9615 3.33747L11.1509 6.16367V6.98752H20.771Z" fill="white"/>
<path d="M16.3731 4.34715C16.2907 1.7499 16.1371 0 15.9613 0C15.7856 0 15.6309 1.7499 15.5496 4.34715H16.3741H16.3731Z" fill="white"/>
<path d="M10.7644 16.2224L10.2542 25.8366L21.3537 19.9072L21.1579 16.2224C21.3135 15.7675 21.7363 15.4405 22.2365 15.4405V14.125H9.68474V15.4405C10.1849 15.4405 10.6077 15.7675 10.7634 16.2224H10.7644Z" fill="white"/>
<path d="M21.6055 24.6488L9.98773 30.8552L9.55889 38.9209L22.0092 32.2699L21.6055 24.6488Z" fill="white"/>
<path d="M28.7199 16.5649H22.1468L22.3095 19.1581H28.7199C29.0815 19.1581 29.3737 19.4566 29.3737 19.8235V38.9089C29.3737 42.9749 27.2426 46.7313 23.7828 48.7643C23.3841 48.9984 22.8819 48.7224 22.8568 48.2543L22.2603 37.0118L9.29278 43.9388L9.0638 48.2543C9.03869 48.7224 8.53754 48.9994 8.13884 48.7643C4.67903 46.7313 2.54791 42.9739 2.54791 38.9089V19.8235C2.54791 19.4555 2.84116 19.1581 3.2017 19.1581H9.61214L9.77484 16.5649H3.2017C1.43313 16.5649 0 18.0235 0 19.8235V38.9089C0 43.8846 2.63026 48.5221 6.86438 51.0099L14.8375 55.6944C15.184 55.8978 15.5727 56 15.9603 56C16.348 56 16.7376 55.8978 17.0831 55.6944L25.0563 51.0099C29.2904 48.5221 31.9206 43.8846 31.9206 38.9089V19.8235C31.9206 18.0235 30.4875 16.5649 28.7189 16.5649H28.7199Z" fill="white"/>
<path d="M41.3293 39.125V23.2H47.782C48.8761 23.2 49.7979 23.3744 50.5474 23.7232C51.2968 24.0721 51.8589 24.5574 52.2336 25.1792C52.6233 25.7859 52.8182 26.4912 52.8182 27.295C52.8182 28.0988 52.6458 28.7737 52.3011 29.3197C51.9563 29.8657 51.4992 30.2904 50.9296 30.5938C50.375 30.8819 49.7605 31.0487 49.086 31.0942L49.4457 30.844C50.1652 30.8743 50.8022 31.0715 51.3568 31.4355C51.9263 31.7843 52.3685 32.2545 52.6833 32.846C53.013 33.4375 53.1779 34.0821 53.1779 34.7798C53.1779 35.6291 52.9756 36.3798 52.5709 37.032C52.1662 37.6842 51.5816 38.1998 50.8172 38.579C50.0528 38.943 49.116 39.125 48.0068 39.125H41.3293ZM44.3645 36.6225H47.5122C48.3365 36.6225 48.9736 36.4329 49.4232 36.0537C49.8729 35.6746 50.0977 35.1286 50.0977 34.4157C50.0977 33.7029 49.8654 33.1493 49.4007 32.755C48.9361 32.3455 48.2916 32.1407 47.4672 32.1407H44.3645V36.6225ZM44.3645 29.843H47.2873C48.0817 29.843 48.6813 29.661 49.086 29.297C49.5057 28.933 49.7155 28.4173 49.7155 27.75C49.7155 27.0978 49.5057 26.5898 49.086 26.2257C48.6813 25.8466 48.0742 25.657 47.2648 25.657H44.3645V29.843Z" fill="white"/>
<path d="M55.6667 39.125V23.2H66.009V25.6797H58.7019V29.843H65.3345V32.2318H58.7019V36.6452H66.009V39.125H55.6667Z" fill="white"/>
<path d="M67.7179 39.125L73.4736 23.2H76.9135L82.6467 39.125H79.4316L75.1823 26.7035L70.9105 39.125H67.7179ZM70.2585 35.5077L71.0679 33.119H79.0719L79.8588 35.5077H70.2585Z" fill="white"/>
<path d="M90.8743 39.398C89.3005 39.398 87.944 39.0567 86.8049 38.3742C85.6807 37.6766 84.8113 36.7135 84.1968 35.485C83.5973 34.2413 83.2975 32.8081 83.2975 31.1852C83.2975 29.5624 83.5973 28.1292 84.1968 26.8855C84.8113 25.6418 85.6807 24.6712 86.8049 23.9735C87.944 23.2758 89.3005 22.927 90.8743 22.927C92.7779 22.927 94.3367 23.4047 95.5508 24.3602C96.7649 25.3157 97.5218 26.6656 97.8216 28.4098H94.5166C94.3217 27.5604 93.9095 26.9007 93.28 26.4305C92.6655 25.9452 91.8561 25.7025 90.8518 25.7025C89.9225 25.7025 89.1206 25.93 88.4461 26.385C87.7866 26.8248 87.277 27.4543 86.9173 28.2733C86.5575 29.0771 86.3777 30.0477 86.3777 31.1852C86.3777 32.3076 86.5575 33.2782 86.9173 34.0972C87.277 34.9162 87.7866 35.5457 88.4461 35.9855C89.1206 36.4253 89.9225 36.6452 90.8518 36.6452C91.8561 36.6452 92.6655 36.4253 93.28 35.9855C93.8945 35.5305 94.2992 34.9011 94.4941 34.0972H97.8216C97.5218 35.7504 96.7649 37.0472 95.5508 37.9875C94.3367 38.9278 92.7779 39.398 90.8743 39.398Z" fill="white"/>
<path d="M107.676 39.398C106.147 39.398 104.798 39.0492 103.629 38.3515C102.459 37.6538 101.545 36.6908 100.886 35.4622C100.226 34.2186 99.8964 32.7853 99.8964 31.1625C99.8964 29.5397 100.226 28.114 100.886 26.8855C101.545 25.6418 102.459 24.6712 103.629 23.9735C104.798 23.2758 106.147 22.927 107.676 22.927C109.219 22.927 110.576 23.2758 111.745 23.9735C112.914 24.6712 113.821 25.6418 114.465 26.8855C115.125 28.114 115.455 29.5397 115.455 31.1625C115.455 32.7853 115.125 34.2186 114.465 35.4622C113.821 36.6908 112.914 37.6538 111.745 38.3515C110.576 39.0492 109.219 39.398 107.676 39.398ZM107.676 36.6452C108.635 36.6452 109.459 36.4253 110.149 35.9855C110.853 35.5305 111.4 34.8935 111.79 34.0745C112.18 33.2555 112.375 32.2848 112.375 31.1625C112.375 30.025 112.18 29.0543 111.79 28.2505C111.4 27.4315 110.853 26.8021 110.149 26.3622C109.459 25.9224 108.635 25.7025 107.676 25.7025C106.731 25.7025 105.907 25.9224 105.202 26.3622C104.498 26.8021 103.951 27.4315 103.561 28.2505C103.171 29.0543 102.977 30.025 102.977 31.1625C102.977 32.2848 103.171 33.2555 103.561 34.0745C103.951 34.8935 104.498 35.5305 105.202 35.9855C105.907 36.4253 106.731 36.6452 107.676 36.6452Z" fill="white"/>
<path d="M118.044 39.125V23.2H121.08L128.319 34.1883V23.2H131.354V39.125H128.319L121.08 28.1595V39.125H118.044Z" fill="white"/>
</svg>
