<svg width="27" height="28" viewBox="0 0 27 28" fill="none" xmlns="http://www.w3.org/2000/svg">
<path d="M2.30005 8.80008C2.30005 5.12314 2.30005 3.28468 3.44233 2.1424C4.5846 1.00012 6.42307 1.00012 10.1 1.00012H17.9C21.5769 1.00012 23.4153 1.00012 24.5576 2.1424C25.6999 3.28468 25.6999 5.12314 25.6999 8.80008V19.2C25.6999 22.8769 25.6999 24.7154 24.5576 25.8577C23.4153 27 21.5769 27 17.9 27H10.1C6.42307 27 4.5846 27 3.44233 25.8577C2.30005 24.7154 2.30005 22.8769 2.30005 19.2V8.80008Z" stroke="#06433F" stroke-width="2"/>
<path d="M8.79974 1.65027V27.0001" stroke="#06433F" stroke-width="2" stroke-linecap="round"/>
<path d="M1.00012 14H3.60011" stroke="#06433F" stroke-width="2" stroke-linecap="round"/>
<path d="M1.00012 19.2H3.60011" stroke="#06433F" stroke-width="2" stroke-linecap="round"/>
<path d="M1.00012 8.80005H3.60011" stroke="#06433F" stroke-width="2" stroke-linecap="round"/>
<path d="M13.3499 6.85022H19.8498" stroke="#06433F" stroke-width="2" stroke-linecap="round"/>
<path d="M13.3499 11.4003H19.8498" stroke="#06433F" stroke-width="2" stroke-linecap="round"/>
</svg>
