<svg width="38" height="33" viewBox="0 0 38 33" fill="none" xmlns="http://www.w3.org/2000/svg">
<path d="M30.9998 15.3999C34.392 14.8982 36.9996 11.8822 36.9996 8.23657C36.9996 4.23993 33.8657 1 29.9997 1H7.99993C4.13398 1 1 4.23993 1 8.23657C1 11.8822 3.60769 14.8982 6.99993 15.3999" stroke="#06433F" stroke-width="2"/>
<path d="M18.9999 6.40002V18.9999M18.9999 18.9999L22.5998 14.8M18.9999 18.9999L15.3999 14.8" stroke="#06433F" stroke-width="2" stroke-linecap="round" stroke-linejoin="round"/>
<path d="M6.3999 13.6C6.3999 10.2059 6.3999 8.50883 7.45431 7.45444C8.50871 6.40002 10.2057 6.40002 13.5998 6.40002H24.3997C27.7938 6.40002 29.4908 6.40002 30.5452 7.45444C31.5996 8.50883 31.5996 10.2059 31.5996 13.6V24.3998C31.5996 27.7939 31.5996 29.4909 30.5452 30.5453C29.4908 31.5998 27.7938 31.5998 24.3997 31.5998H13.5998C10.2057 31.5998 8.50871 31.5998 7.45431 30.5453C6.3999 29.4909 6.3999 27.7939 6.3999 24.3998V13.6Z" stroke="#06433F" stroke-width="2"/>
<path d="M6.3999 26.1998H31.5996" stroke="#06433F" stroke-width="2" stroke-linecap="round" stroke-linejoin="round"/>
</svg>
