<svg width="34" height="38" viewBox="0 0 34 38" fill="none" xmlns="http://www.w3.org/2000/svg">
<path d="M1.3999 15.8871C1.3999 10.2735 1.3999 7.46669 2.06266 6.52243C2.7254 5.57816 5.36451 4.67479 10.6427 2.86803L11.6483 2.52381C14.3998 1.58199 15.7754 1.11108 17.1999 1.11108C18.6244 1.11108 20 1.58199 22.7515 2.52381L23.7571 2.86803C29.0353 4.67479 31.6745 5.57816 32.3372 6.52243C32.9999 7.46669 32.9999 10.2735 32.9999 15.8871C32.9999 16.7348 32.9999 17.6544 32.9999 18.6515C32.9999 28.5494 25.5581 33.3527 20.889 35.3923C19.6226 35.9455 18.9893 36.2222 17.1999 36.2222C15.4105 36.2222 14.7772 35.9455 13.5107 35.3923C8.84163 33.3527 1.3999 28.5494 1.3999 18.6515C1.3999 17.6544 1.3999 16.7348 1.3999 15.8871Z" stroke="#06433F" stroke-width="2"/>
<path d="M1.3999 16.9112L17.1999 11.6445L32.9999 16.9112" stroke="#06433F" stroke-width="2"/>
<path d="M17.2002 1.11108V35.3444" stroke="#06433F" stroke-width="2"/>
</svg>
