<svg width="38" height="38" viewBox="0 0 38 38" fill="none" xmlns="http://www.w3.org/2000/svg">
<path d="M2.79907 19C2.79907 25.7882 2.79907 32.7824 5.17151 34.8911C7.54394 37 11.3623 37 18.9991 37C26.6358 37 30.4543 37 32.8267 34.8911C35.1991 32.7824 35.1991 25.7882 35.1991 19" stroke="#06433F" stroke-width="2"/>
<path d="M23.7885 22.9634L34.9442 19.6166C35.6838 19.3949 36.0537 19.2838 36.3275 19.0639C36.5666 18.8718 36.7527 18.6216 36.8679 18.3374C37 18.0119 37 17.6258 37 16.8538C37 13.8164 37 12.2978 36.4065 11.1388C35.8901 10.1303 35.0697 9.30981 34.0611 8.79343C32.9021 8.19995 31.3835 8.19995 28.3461 8.19995H9.65377C6.61649 8.19995 5.09784 8.19995 3.93882 8.79343C2.93036 9.30981 2.10986 10.1303 1.59348 11.1388C1 12.2978 1 13.8164 1 16.8538C1 17.6258 1 18.0119 1.13205 18.3374C1.24737 18.6216 1.43342 18.8718 1.67253 19.0639C1.94633 19.2838 2.31612 19.3949 3.05571 19.6166L14.2114 22.9634" stroke="#06433F" stroke-width="2"/>
<path d="M22.6 19.8999H15.4C14.9029 19.8999 14.5 20.3029 14.5 20.7999V24.6906C14.5 25.0585 14.7241 25.3895 15.0657 25.5262L16.3259 26.0303C18.0426 26.7169 19.9574 26.7169 21.6741 26.0303L22.9343 25.5262C23.2759 25.3895 23.5 25.0585 23.5 24.6906V20.7999C23.5 20.3029 23.097 19.8999 22.6 19.8999Z" stroke="#06433F" stroke-width="2" stroke-linecap="round"/>
<path d="M13.9075 4.6C14.6488 2.50266 16.6491 1 19.0002 1C21.3514 1 23.3517 2.50266 24.093 4.6" stroke="#06433F" stroke-width="2" stroke-linecap="round"/>
</svg>
