<svg width="32" height="36" viewBox="0 0 32 36" fill="none" xmlns="http://www.w3.org/2000/svg">
<path d="M22.6667 4.33643C26.2917 4.35661 28.2548 4.51736 29.5355 5.79799C31 7.26246 31 9.61949 31 14.3335V24.3335C31 29.0475 31 31.4047 29.5355 32.869C28.071 34.3335 25.714 34.3335 21 34.3335H11C6.28595 34.3335 3.92893 34.3335 2.46447 32.869C1 31.4047 1 29.0475 1 24.3335V14.3335C1 9.61949 1 7.26246 2.46447 5.79799C3.7451 4.51736 5.70828 4.35661 9.33333 4.33643" stroke="#06433F" stroke-width="2"/>
<path d="M9.33325 20.9999H22.6666" stroke="#06433F" stroke-width="2" stroke-linecap="round"/>
<path d="M7.66675 15.1666H24.3334" stroke="#06433F" stroke-width="2" stroke-linecap="round"/>
<path d="M10.9998 26.8333H20.9998" stroke="#06433F" stroke-width="2" stroke-linecap="round"/>
<path d="M9.33325 3.5C9.33325 2.11928 10.4525 1 11.8333 1H20.1666C21.5473 1 22.6666 2.11928 22.6666 3.5V5.16667C22.6666 6.54738 21.5473 7.66667 20.1666 7.66667H11.8333C10.4525 7.66667 9.33325 6.54738 9.33325 5.16667V3.5Z" stroke="#06433F" stroke-width="2"/>
</svg>
