<svg width="32" height="32" viewBox="0 0 32 32" fill="none" xmlns="http://www.w3.org/2000/svg">
<path d="M31 31H1" stroke="#06433F" stroke-width="2" stroke-linecap="round"/>
<path d="M23.5 31V7C23.5 4.17157 23.5 2.75735 22.6213 1.87868C21.7426 1 20.3284 1 17.5 1H14.5C11.6716 1 10.2574 1 9.37869 1.87868C8.5 2.75735 8.5 4.17157 8.5 7V31" stroke="#06433F" stroke-width="2"/>
<path d="M29.3333 31V15.375C29.3333 13.285 29.3333 12.2401 28.8518 11.4894C28.6433 11.1644 28.3755 10.8854 28.0635 10.6683C27.3429 10.1667 26.3398 10.1667 24.3333 10.1667" stroke="#06433F" stroke-width="2"/>
<path d="M2.66667 31V15.375C2.66667 13.285 2.66667 12.2401 3.14819 11.4894C3.35664 11.1644 3.6245 10.8854 3.93647 10.6683C4.65711 10.1667 5.6603 10.1667 7.66667 10.1667" stroke="#06433F" stroke-width="2"/>
<path d="M16 31V26" stroke="#06433F" stroke-width="2" stroke-linecap="round"/>
<path d="M13.5 6H18.5" stroke="#06433F" stroke-width="2" stroke-linecap="round"/>
<path d="M13.5 10.1667H18.5" stroke="#06433F" stroke-width="2" stroke-linecap="round"/>
<path d="M13.5 14.3333H18.5" stroke="#06433F" stroke-width="2" stroke-linecap="round"/>
<path d="M13.5 18.5H18.5" stroke="#06433F" stroke-width="2" stroke-linecap="round"/>
</svg>
