<svg width="31" height="31" viewBox="0 0 31 31" fill="none" xmlns="http://www.w3.org/2000/svg">
<path d="M8.07937 23.6512C4.99985 23.6341 3.33211 23.4974 2.2442 22.4095C1.00012 21.1654 1.00012 19.1631 1.00012 15.1585V9.4951C1.00012 5.49047 1.00012 3.48816 2.2442 2.24408C3.48828 1 5.49059 1 9.49522 1H20.822C24.8266 1 26.8289 1 28.073 2.24408C29.3171 3.48816 29.3171 5.49047 29.3171 9.4951V15.1585C29.3171 19.1631 29.3171 21.1654 28.073 22.4095C27.0397 23.4429 25.4831 23.6179 22.6905 23.6475L21.5299 23.6512" stroke="#06433F" stroke-width="2"/>
<path d="M10.9111 6.66357H19.4062" stroke="#06433F" stroke-width="2" stroke-linecap="round"/>
<path d="M8.07959 11.619H22.2381" stroke="#06433F" stroke-width="2" stroke-linecap="round"/>
<path d="M13.5879 17.9128C14.4929 17.1415 15.8241 17.1415 16.7292 17.9128C17.117 18.2434 17.5993 18.4431 18.1071 18.4836C19.2926 18.5782 20.2339 19.5195 20.3285 20.7048C20.369 21.2128 20.5687 21.6951 20.8992 22.0829C21.6705 22.988 21.6705 24.3192 20.8992 25.2242C20.5687 25.612 20.369 26.0942 20.3285 26.6023C20.2339 27.7876 19.2926 28.7289 18.1071 28.8234C17.5993 28.8641 17.117 29.0637 16.7292 29.3943C15.8241 30.1655 14.4929 30.1655 13.5879 29.3943C13.1999 29.0637 12.7178 28.8641 12.2098 28.8234C11.0244 28.7289 10.0832 27.7876 9.98857 26.6023C9.94803 26.0942 9.74828 25.612 9.41777 25.2242C8.64647 24.3192 8.64647 22.988 9.41777 22.0829C9.74828 21.6951 9.94803 21.2128 9.98857 20.7048C10.0832 19.5195 11.0244 18.5782 12.2098 18.4836C12.7178 18.4431 13.1999 18.2434 13.5879 17.9128Z" stroke="#06433F" stroke-width="2"/>
<path d="M13.0348 23.9369L14.2483 25.0696L17.2823 22.2379" stroke="#06433F" stroke-width="2" stroke-linecap="round" stroke-linejoin="round"/>
</svg>
