<svg width="41" height="41" viewBox="0 0 41 41" fill="none" xmlns="http://www.w3.org/2000/svg">
<rect x="0.5" y="0.5" width="40" height="40" rx="7.5" stroke="#25B68F" stroke-opacity="0.19"/>
<path d="M20.5 11.459C21.1283 11.4592 21.6377 11.9693 21.6377 12.5977V28.4043C21.6377 29.0327 21.1283 29.5428 20.5 29.543C19.8715 29.543 19.3613 29.0328 19.3613 28.4043V12.5977C19.3613 11.9692 19.8715 11.459 20.5 11.459Z" fill="#25B68F" stroke="#25B68F" stroke-width="0.3" stroke-linecap="round"/>
<path d="M28.4033 19.3613C29.0318 19.3613 29.542 19.8715 29.542 20.5C29.5418 21.1283 29.0317 21.6377 28.4033 21.6377H12.5967C11.9683 21.6377 11.4582 21.1283 11.458 20.5C11.458 19.8715 11.9682 19.3613 12.5967 19.3613H28.4033Z" fill="#25B68F" stroke="#25B68F" stroke-width="0.3" stroke-linecap="round"/>
</svg>
