<svg width="34" height="38" viewBox="0 0 34 38" fill="none" xmlns="http://www.w3.org/2000/svg">
<path d="M25.1472 1.18774H8.45223C6.41779 1.18774 5.40059 1.18774 4.5802 1.47891C3.02451 2.03105 1.80312 3.31354 1.27728 4.94705C1 5.8085 1 6.87659 1 9.01281V34.0887C1 35.6254 2.72919 36.4409 3.82306 35.4199C4.4657 34.82 5.43415 34.82 6.0768 35.4199L6.92489 36.2115C8.05122 37.2628 9.74849 37.2628 10.8748 36.2115C12.0011 35.1602 13.6984 35.1602 14.8247 36.2115C15.9511 37.2628 17.6483 37.2628 18.7747 36.2115C19.901 35.1602 21.5983 35.1602 22.7246 36.2115C23.8509 37.2628 25.5482 37.2628 26.6745 36.2115L27.5226 35.4199C28.1653 34.82 29.1337 34.82 29.7764 35.4199C30.8702 36.4409 32.5994 35.6254 32.5994 34.0887V9.01281C32.5994 6.87659 32.5994 5.8085 32.3221 4.94705C31.7963 3.31354 30.575 2.03105 29.0192 1.47891C28.1989 1.18774 27.1817 1.18774 25.1472 1.18774Z" stroke="#06433F" stroke-width="2"/>
<path d="M14.1664 17.3032H25.5773" stroke="#06433F" stroke-width="2" stroke-linecap="round"/>
<path d="M8.02209 17.3032H8.89986" stroke="#06433F" stroke-width="2" stroke-linecap="round"/>
<path d="M8.02209 11.036H8.89986" stroke="#06433F" stroke-width="2" stroke-linecap="round"/>
<path d="M8.02209 23.5703H8.89986" stroke="#06433F" stroke-width="2" stroke-linecap="round"/>
<path d="M14.1664 11.036H25.5773" stroke="#06433F" stroke-width="2" stroke-linecap="round"/>
<path d="M14.1664 23.5703H25.5773" stroke="#06433F" stroke-width="2" stroke-linecap="round"/>
</svg>
