<svg width="30" height="30" viewBox="0 0 30 30" fill="none" xmlns="http://www.w3.org/2000/svg">
<path d="M1 15C1 8.40032 1 5.1005 3.05026 3.05026C5.1005 1 8.40032 1 15 1C21.5996 1 24.8995 1 26.9497 3.05026C29 5.1005 29 8.40032 29 15C29 21.5996 29 24.8995 26.9497 26.9497C24.8995 29 21.5996 29 15 29C8.40032 29 5.1005 29 3.05026 26.9497C1 24.8995 1 21.5996 1 15Z" stroke="#06433F" stroke-width="2"/>
<path d="M1 16.3999H5.42436C6.69159 16.3999 7.32522 16.3999 7.88217 16.6561C8.43913 16.9122 8.85148 17.3933 9.6762 18.3554L10.5238 19.3444C11.3485 20.3065 11.7608 20.7876 12.3179 21.0437C12.8748 21.2999 13.5084 21.2999 14.7756 21.2999H15.2244C16.4915 21.2999 17.1252 21.2999 17.6821 21.0437C18.2392 20.7876 18.6515 20.3065 19.4762 19.3444L20.3238 18.3554C21.1485 17.3933 21.5608 16.9122 22.1179 16.6561C22.6748 16.3999 23.3084 16.3999 24.5756 16.3999H29" stroke="#06433F" stroke-width="2" stroke-linecap="round"/>
<path d="M9.3999 8H20.5999" stroke="#06433F" stroke-width="2" stroke-linecap="round"/>
<path d="M12.2 12.8999H17.7999" stroke="#06433F" stroke-width="2" stroke-linecap="round"/>
</svg>
