<svg width="31" height="26" viewBox="0 0 31 26" fill="none" xmlns="http://www.w3.org/2000/svg">
<path d="M11.15 11.15C12.7516 11.15 14.05 9.85158 14.05 8.24996C14.05 6.64834 12.7516 5.34998 11.15 5.34998C9.54837 5.34998 8.25 6.64834 8.25 8.24996C8.25 9.85158 9.54837 11.15 11.15 11.15Z" stroke="#06433F" stroke-width="2"/>
<path d="M16.95 16.9499C16.95 18.5516 16.95 19.8499 11.1501 19.8499C5.3501 19.8499 5.3501 18.5516 5.3501 16.9499C5.3501 15.3483 7.94683 14.0499 11.1501 14.0499C14.3533 14.0499 16.95 15.3483 16.95 16.9499Z" stroke="#06433F" stroke-width="2"/>
<path d="M1 12.6C1 7.13168 1 4.39755 2.69877 2.69877C4.39755 1 7.13168 1 12.6 1H18.3999C23.8681 1 26.6024 1 28.3011 2.69877C29.9999 4.39755 29.9999 7.13168 29.9999 12.6C29.9999 18.0682 29.9999 20.8024 28.3011 22.5011C26.6024 24.1999 23.8681 24.1999 18.3999 24.1999H12.6C7.13168 24.1999 4.39755 24.1999 2.69877 22.5011C1 20.8024 1 18.0682 1 12.6Z" stroke="#06433F" stroke-width="2"/>
<path d="M25.6501 12.5999H19.8501" stroke="#06433F" stroke-width="2" stroke-linecap="round"/>
<path d="M25.6501 8.24994H18.4001" stroke="#06433F" stroke-width="2" stroke-linecap="round"/>
<path d="M25.65 16.95H21.3" stroke="#06433F" stroke-width="2" stroke-linecap="round"/>
</svg>
