<svg width="38" height="38" viewBox="0 0 38 38" fill="none" xmlns="http://www.w3.org/2000/svg">
<path d="M37.0005 19.0003C37.0005 10.5149 37.0005 6.27216 34.3644 3.63609C31.7283 1 27.4856 1 19.0002 1C10.5148 1 6.27199 1 3.63602 3.63609C0.99988 6.27216 0.999879 10.5149 0.999879 19.0003C0.999879 27.4856 0.99988 31.7285 3.63602 34.3645C6.27199 37.0006 10.5148 37.0006 19.0002 37.0006C27.4856 37.0006 31.7283 37.0006 34.3644 34.3645C37.0005 31.7285 37.0005 27.4856 37.0005 19.0003Z" stroke="#06433F" stroke-width="2"/>
<path d="M37.0005 22.6004C37.0005 17.5598 37.0005 15.0396 36.0195 13.1144C35.1567 11.4209 33.7798 10.044 32.0863 9.18116C30.1611 8.2002 27.6408 8.2002 22.6002 8.2002H15.4001C10.3595 8.2002 7.83927 8.2002 5.91396 9.18116C4.22049 10.044 2.84365 11.4209 1.9809 13.1144C0.999879 15.0396 0.999879 17.5598 0.999879 22.6004" stroke="#06433F" stroke-width="2"/>
<path d="M10 8.2002V16.854C10 18.6089 10 19.4864 10.2324 20.0097C10.7621 21.2024 12.069 21.8453 13.3371 21.5375C13.8936 21.4023 14.5888 20.867 15.9793 19.7964C16.7643 19.1919 17.1569 18.8897 17.5655 18.712C18.4807 18.3146 19.5196 18.3146 20.4348 18.712C20.8434 18.8897 21.236 19.1919 22.021 19.7964C23.4115 20.867 24.1067 21.4023 24.6632 21.5375C25.9313 21.8453 27.2381 21.2024 27.7678 20.0097C28.0003 19.4864 28.0003 18.6089 28.0003 16.854V8.2002" stroke="#06433F" stroke-width="2"/>
</svg>
