<svg width="47" height="47" viewBox="0 0 47 47" fill="none" xmlns="http://www.w3.org/2000/svg">
<path d="M27.9769 24.1976H39.8522C40.4529 24.1976 40.9398 23.7107 40.9398 23.1101C40.9398 22.5094 40.4529 22.0226 39.8522 22.0226H27.9769C27.3762 22.0226 26.8893 22.5094 26.8893 23.1101C26.8893 23.7107 27.3762 24.1976 27.9769 24.1976ZM6.79542 8.48269H18.6708C19.2714 8.48269 19.7583 7.9958 19.7583 7.39516C19.7583 6.79451 19.2714 6.30762 18.6708 6.30762H6.79542C6.19478 6.30762 5.70789 6.79451 5.70789 7.39516C5.70789 7.9958 6.19478 8.48269 6.79542 8.48269Z" fill="#06433F"/>
<path d="M27.7357 17.8899H42.9091C43.8098 17.8899 44.5404 18.6205 44.5404 19.5212V42.9397C44.5404 43.8405 43.8098 44.571 42.9091 44.571H26.0522C25.1512 44.571 24.4209 43.8407 24.4209 42.9397V40.8538C24.4209 40.2532 23.934 39.7663 23.3334 39.7663C22.7327 39.7663 22.2458 40.2532 22.2458 40.8538V42.9397C22.2458 45.0419 23.9499 46.7461 26.0522 46.7461H42.9091C45.011 46.7461 46.7155 45.0417 46.7155 42.9397V19.5212C46.7155 17.4193 45.011 15.7148 42.9091 15.7148H27.7357C27.1351 15.7148 26.6482 16.2017 26.6482 16.8024C26.6482 17.403 27.1351 17.8899 27.7357 17.8899Z" fill="#06433F"/>
<path d="M4.30482 33.3059H23.3732C23.9738 33.3059 24.4607 32.819 24.4607 32.2184C24.4607 31.6178 23.9738 31.1309 23.3732 31.1309H4.30482C3.70418 31.1309 3.21729 31.6178 3.21729 32.2184C3.21729 32.819 3.70418 33.3059 4.30482 33.3059Z" fill="#06433F"/>
<path d="M23.3822 35.4538H3.80651C2.90578 35.4538 2.1752 34.7232 2.1752 33.8224V3.80639C2.1752 2.90566 2.90578 2.17508 3.80651 2.17508H20.6634C21.5641 2.17508 22.2947 2.90566 22.2947 3.80639V24.8774C22.2947 25.4781 22.7816 25.965 23.3822 25.965C23.9828 25.965 24.4697 25.4781 24.4697 24.8774V3.80639C24.4697 1.70443 22.7653 0 20.6634 0H3.80651C1.70455 0 0.00012207 1.70443 0.00012207 3.80639V33.8224C0.00012207 35.9244 1.70455 37.6288 3.80651 37.6288H23.3822C23.9828 37.6288 24.4697 37.1419 24.4697 36.5413C24.4697 35.9407 23.9828 35.4538 23.3822 35.4538Z" fill="#06433F"/>
<path d="M22.2972 19.5078V25.1494C22.2972 26.0501 21.5666 26.7807 20.6659 26.7807H8.49902V28.9558H20.6659C22.7678 28.9558 24.4722 27.2514 24.4722 25.1494V19.5078H22.2972Z" fill="#06433F"/>
<path d="M2.1752 32.9686V30.5896C2.1752 29.6889 2.90578 28.9583 3.80651 28.9583H15.9733V26.7832H3.80651C1.70455 26.7832 0.00012207 28.4876 0.00012207 30.5896V32.9686H2.1752Z" fill="#06433F"/>
</svg>
