<svg width="57" height="41" viewBox="0 0 57 41" fill="none" xmlns="http://www.w3.org/2000/svg">
<path d="M13.6598 15.3984C13.6598 12.9148 11.673 11.1763 9.43771 11.1763C7.20245 11.1763 5.21558 13.1631 5.21558 15.3984C5.21558 17.882 7.20245 19.6205 9.43771 19.6205C11.673 19.6205 13.6598 17.6337 13.6598 15.3984ZM7.69916 15.3984C7.69916 14.4049 8.44424 13.6599 9.43771 13.6599C10.4312 13.6599 11.1763 14.4049 11.1763 15.3984C11.1763 16.3919 10.4312 17.137 9.43771 17.137C8.44424 17.137 7.69916 16.3919 7.69916 15.3984ZM20.614 20.3657C18.3787 20.3657 16.3919 22.3526 16.3919 24.5878C16.3919 27.0715 18.3787 28.81 20.614 28.81C22.8493 28.81 24.8361 26.8231 24.8361 24.5878C24.8361 22.3526 22.8493 20.3657 20.614 20.3657ZM20.614 26.5747C19.6205 26.5747 18.8755 25.8296 18.8755 24.8361C18.8755 23.8427 19.6205 23.0976 20.614 23.0976C21.6075 23.0976 22.3526 23.8427 22.3526 24.8361C22.3526 25.8296 21.3591 26.5747 20.614 26.5747ZM21.1107 13.6599C20.614 13.1632 19.8689 13.1632 19.3722 13.6599L7.45078 26.078C6.95407 26.5747 6.95407 27.3198 7.45078 27.8165C7.69916 28.0649 7.94748 28.0649 8.19586 28.0649C8.44424 28.0649 8.94095 27.8165 9.18933 27.5682L21.1107 15.1501C21.6074 14.9018 21.6074 14.1567 21.1107 13.66V13.6599Z" fill="#06433F"/>
<path d="M26.078 0H3.47705C1.49017 0 0 1.49017 0 3.47705V37.0059C0 38.9928 1.49017 40.483 3.47705 40.483H26.078C28.0649 40.483 29.5551 38.9928 29.5551 37.0059V3.47705C29.8034 1.49017 28.0649 0 26.078 0ZM27.0715 37.0059C27.0715 37.5026 26.8232 37.9994 26.3264 37.9994H3.47711C2.9804 37.9994 2.48364 37.5027 2.48364 37.0059V3.47705C2.48364 2.98034 2.98034 2.48358 3.47711 2.48358H26.0781C26.5748 2.48358 27.0715 2.98029 27.0715 3.47705V37.0059ZM56.6265 13.4116V6.45745C56.6265 2.73202 51.4109 5.8622e-05 44.2085 5.8622e-05C37.5027 5.8622e-05 32.5355 2.4837 32.0387 5.96075V34.5223C32.0387 35.0191 32.2871 35.2674 32.5354 35.5158C34.0256 38.2478 38.4961 40.2347 44.4568 40.2347C50.4175 40.2347 54.888 38.2478 56.3782 35.5158C56.6266 35.2674 56.6265 35.0191 56.6265 34.5223V13.4116ZM44.2085 2.48364C49.6725 2.48364 53.6462 4.47052 53.8946 6.45745V6.95421C53.3979 8.69277 49.4241 10.6796 44.2085 10.6796C38.4962 10.6796 34.274 8.44439 34.274 6.70583C34.5223 4.71896 38.7445 2.48364 44.2085 2.48364ZM34.5223 10.4312C36.7576 11.9214 40.2347 12.9148 44.4568 12.9148C48.4307 12.9148 51.9077 11.9214 54.143 10.4312V13.6599C53.6463 15.3985 49.6725 17.3854 44.4568 17.3854C38.7445 17.3854 34.5223 15.1501 34.5223 13.4116V10.4312ZM34.5223 17.3854C36.7576 18.8755 40.2347 19.869 44.4568 19.869C48.4307 19.869 51.9077 18.8755 54.143 17.3854V20.1173C53.6463 21.8559 49.6725 23.8428 44.4568 23.8428C38.7445 23.8428 34.5223 21.6075 34.5223 19.8689V17.3854ZM34.5223 23.8428C36.7576 25.3329 40.2347 26.3264 44.4568 26.3264C48.4307 26.3264 51.9077 25.3329 54.143 23.8428V27.0715C53.6463 28.81 49.6725 30.7969 44.4568 30.7969C38.7445 30.7969 34.5223 28.5617 34.5223 26.8231V23.8428ZM44.2085 37.751C38.4962 37.751 34.274 35.5158 34.274 33.7772V30.7969C36.5092 32.287 39.9863 33.2805 44.2085 33.2805C48.1823 33.2805 51.6593 32.287 53.8946 30.7969V34.0256C53.6462 36.0125 49.6725 37.751 44.2085 37.751Z" fill="#06433F"/>
</svg>
