<svg width="34" height="34" viewBox="0 0 34 34" fill="none" xmlns="http://www.w3.org/2000/svg">
<path d="M16.9999 9V20.2M16.9999 20.2L21.7999 15.4M16.9999 20.2L12.2 15.4" stroke="#06433F" stroke-width="2" stroke-linecap="round" stroke-linejoin="round"/>
<path d="M23.4001 25H17.0001H10.6001" stroke="#06433F" stroke-width="2" stroke-linecap="round"/>
<path d="M1 17C1 9.4575 1 5.68628 3.34315 3.34315C5.68628 1 9.4575 1 17 1C24.5424 1 28.3137 1 30.6567 3.34315C32.9999 5.68628 32.9999 9.4575 32.9999 17C32.9999 24.5424 32.9999 28.3137 30.6567 30.6567C28.3137 32.9999 24.5424 32.9999 17 32.9999C9.4575 32.9999 5.68628 32.9999 3.34315 30.6567C1 28.3137 1 24.5424 1 17Z" stroke="#06433F" stroke-width="2"/>
</svg>
