<svg width="30" height="30" viewBox="0 0 30 30" fill="none" xmlns="http://www.w3.org/2000/svg">
<path d="M1 17.8C1 12.5203 1 9.88039 2.6402 8.24017C4.28041 6.59998 6.92026 6.59998 12.2 6.59998H17.8C23.0797 6.59998 25.7197 6.59998 27.3598 8.24017C29 9.88039 29 12.5203 29 17.8C29 23.0797 29 25.7196 27.3598 27.3597C25.7197 29 23.0797 29 17.8 29H12.2C6.92026 29 4.28041 29 2.6402 27.3597C1 25.7196 1 23.0797 1 17.8Z" stroke="#06433F" stroke-width="2"/>
<path d="M20.6 6.6C20.6 3.96013 20.6 2.6402 19.7799 1.82011C18.9598 1 17.6399 1 15 1C12.3602 1 11.0402 1 10.2201 1.82011C9.40002 2.6402 9.40002 3.96013 9.40002 6.6" stroke="#06433F" stroke-width="2"/>
<path d="M12.2 19.2H6.60001C5.94005 19.2 5.61006 19.2 5.40504 19.405C5.20001 19.6101 5.20001 19.9401 5.20001 20.6V22C5.20001 22.66 5.20001 22.99 5.40504 23.1951C5.61006 23.4 5.94005 23.4 6.60001 23.4H12.2C12.86 23.4 13.19 23.4 13.3951 23.1951C13.6 22.99 13.6 22.66 13.6 22V20.6C13.6 19.9401 13.6 19.6101 13.3951 19.405C13.19 19.2 12.86 19.2 12.2 19.2Z" stroke="#06433F" stroke-width="2" stroke-linejoin="round"/>
<path d="M6.59998 7.29999V19.2M6.59998 28.3V24.1" stroke="#06433F" stroke-width="2" stroke-linecap="round"/>
<path d="M23.4 7.29999V28.3" stroke="#06433F" stroke-width="2" stroke-linecap="round"/>
</svg>
