<svg width="38" height="38" viewBox="0 0 38 38" fill="none" xmlns="http://www.w3.org/2000/svg">
<path d="M6.40045 11.8004C6.40045 6.70924 6.40045 4.1637 7.98206 2.58209C9.56366 1.00049 12.1092 1.00049 17.2003 1.00049H20.8003C25.8913 1.00049 28.4369 1.00049 30.0185 2.58209C31.6001 4.1637 31.6001 6.70924 31.6001 11.8004V26.2002C31.6001 31.2912 31.6001 33.8367 30.0185 35.4184C28.4369 37 25.8913 37 20.8003 37H17.2003C12.1092 37 9.56366 37 7.98206 35.4184C6.40045 33.8367 6.40045 31.2912 6.40045 26.2002V11.8004Z" stroke="#06433F" stroke-width="2"/>
<path d="M13.6003 20.8003H24.4002" stroke="#06433F" stroke-width="2" stroke-linecap="round"/>
<path d="M13.6003 13.6003H24.4002" stroke="#06433F" stroke-width="2" stroke-linecap="round"/>
<path d="M13.6003 28.0002H19.0003" stroke="#06433F" stroke-width="2" stroke-linecap="round"/>
<path d="M1.00049 31.6001V6.40039" stroke="#06433F" stroke-width="2" stroke-linecap="round"/>
<path d="M37 31.6001V6.40039" stroke="#06433F" stroke-width="2" stroke-linecap="round"/>
</svg>
