<svg width="33" height="35" viewBox="0 0 33 35" fill="none" xmlns="http://www.w3.org/2000/svg">
<path d="M1 14.0496C1 7.89797 1 4.82215 2.96563 2.91107C4.93128 1 8.09492 1 14.4222 1H17.7778C24.105 1 27.2688 1 29.2343 2.91107C31.2 4.82215 31.2 7.89797 31.2 14.0496V20.5744C31.2 26.726 31.2 29.802 29.2343 31.7129C27.2688 33.6241 24.105 33.6241 17.7778 33.6241H14.4222C8.09492 33.6241 4.93128 33.6241 2.96563 31.7129C1 29.802 1 26.726 1 20.5744V14.0496Z" stroke="#06433F" stroke-width="2"/>
<path d="M9.38892 17.3119H22.8111" stroke="#06433F" stroke-width="2" stroke-linecap="round"/>
<path d="M9.38892 10.7871H22.8111" stroke="#06433F" stroke-width="2" stroke-linecap="round"/>
<path d="M9.38892 23.8368H17.7778" stroke="#06433F" stroke-width="2" stroke-linecap="round"/>
</svg>
