<svg width="48" height="47" viewBox="0 0 48 47" fill="none" xmlns="http://www.w3.org/2000/svg">
<path d="M41.6882 44.5993C43.4627 44.5993 44.9016 43.1605 44.9016 41.386V16.5636C44.9016 14.7891 43.4627 13.3503 41.6882 13.3503H6.34099C4.56641 13.3503 3.12761 14.7891 3.12761 16.5636V41.386C3.12761 43.1605 4.56641 44.5993 6.34099 44.5993H41.6882ZM41.6882 46.7416H6.34099C3.38331 46.7416 0.985352 44.3436 0.985352 41.386V16.5636C0.985352 13.606 3.38331 11.208 6.34099 11.208H41.6882C44.6458 11.208 47.0438 13.606 47.0438 16.5636V41.386C47.0438 44.3436 44.6458 46.7416 41.6882 46.7416Z" fill="#06433F"/>
<path d="M9.51428 12.3433V44.9034C9.51428 45.495 9.99383 45.9745 10.5854 45.9745C11.177 45.9745 11.6565 45.495 11.6565 44.9034V12.3433C11.6565 11.7517 11.177 11.2721 10.5854 11.2721C9.99383 11.2721 9.51428 11.7517 9.51428 12.3433ZM36.346 12.862V45.4221C36.346 46.0137 36.8256 46.4932 37.4171 46.4932C38.0087 46.4932 38.4883 46.0137 38.4883 45.4221V12.862C38.4883 12.2704 38.0087 11.7909 37.4171 11.7909C36.8256 11.7909 36.346 12.2704 36.346 12.862ZM17.5879 11.7824V5.35563C17.5879 3.58106 19.0267 2.14225 20.8013 2.14225H28.2992C30.0737 2.14225 31.5125 3.58106 31.5125 5.35563V11.7824C31.5125 12.374 31.9921 12.8535 32.5837 12.8535C33.1753 12.8535 33.6548 12.374 33.6548 11.7824V5.35563C33.6548 2.39795 31.2568 0 28.2992 0H20.8013C17.8436 0 15.4456 2.39795 15.4456 5.35563V11.7824C15.4456 12.374 15.9252 12.8535 16.5168 12.8535C17.1084 12.8535 17.5879 12.374 17.5879 11.7824Z" fill="#06433F"/>
</svg>
