<svg width="32" height="32" viewBox="0 0 32 32" fill="none" xmlns="http://www.w3.org/2000/svg">
<path d="M16 31C24.2843 31 31 24.2843 31 16C31 7.71573 24.2843 1 16 1C7.71573 1 1 7.71573 1 16C1 24.2843 7.71573 31 16 31Z" stroke="#06433F" stroke-width="2"/>
<path d="M15.9995 21.9995C19.3132 21.9995 21.9995 19.3132 21.9995 15.9995C21.9995 12.6858 19.3132 9.99951 15.9995 9.99951C12.6858 9.99951 9.99951 12.6858 9.99951 15.9995C9.99951 19.3132 12.6858 21.9995 15.9995 21.9995Z" stroke="#06433F" stroke-width="2"/>
<path d="M20.5 11.5L26.5 5.5" stroke="#06433F" stroke-width="2"/>
<path d="M5.5 26.5L11.5 20.5" stroke="#06433F" stroke-width="2"/>
<path d="M11.5 11.5L5.5 5.5" stroke="#06433F" stroke-width="2"/>
<path d="M26.5 26.5L20.5 20.5" stroke="#06433F" stroke-width="2"/>
</svg>
