<svg width="35" height="28" viewBox="0 0 35 28" fill="none" xmlns="http://www.w3.org/2000/svg">
<path d="M9.375 18.875V9.125" stroke="#06433F" stroke-width="2" stroke-linecap="round" stroke-linejoin="round"/>
<path d="M31.8541 9.125H27.6251C24.7256 9.125 22.375 11.3075 22.375 14C22.375 16.6925 24.7256 18.875 27.6251 18.875H31.8541C31.9896 18.875 32.0572 18.875 32.1144 18.8716C32.9908 18.8181 33.6888 18.1701 33.7463 17.3563C33.75 17.3031 33.75 17.2403 33.75 17.1146V10.8854C33.75 10.7598 33.75 10.6968 33.7463 10.6437C33.6888 9.82999 32.9908 9.18181 32.1144 9.12848C32.0572 9.125 31.9896 9.125 31.8541 9.125Z" stroke="#06433F" stroke-width="2"/>
<path d="M32.0682 9.12501C31.9419 6.08252 31.5345 4.2171 30.2212 2.9038C28.3175 1 25.2532 1 19.125 1H14.25C8.12174 1 5.05762 1 3.1538 2.9038C1.25 4.80762 1.25 7.87174 1.25 14C1.25 20.1282 1.25 23.1925 3.1538 25.0962C5.05762 27 8.12174 27 14.25 27H19.125C25.2532 27 28.3175 27 30.2212 25.0962C31.5345 23.783 31.9419 21.9175 32.0682 18.875" stroke="#06433F" stroke-width="2"/>
<path d="M27.2357 14H27.2509" stroke="#06433F" stroke-width="2" stroke-linecap="round" stroke-linejoin="round"/>
</svg>
