<svg width="31" height="42" viewBox="0 0 31 42" fill="none" xmlns="http://www.w3.org/2000/svg">
<path d="M13.6428 11.0451C14.4245 9.6818 14.8154 9.00012 15.3998 9.00012C15.9842 9.00012 16.3751 9.6818 17.1568 11.0451L17.359 11.3979C17.581 11.7853 17.692 11.979 17.8652 12.1068C18.0385 12.2346 18.254 12.2821 18.6854 12.3769L19.0781 12.4633C20.596 12.7973 21.3551 12.9642 21.5357 13.5288C21.7163 14.0933 21.1988 14.6815 20.1641 15.8581L19.8962 16.1624C19.6023 16.4968 19.4552 16.6639 19.3889 16.8707C19.3229 17.0775 19.3451 17.3005 19.3896 17.7467L19.4301 18.1527C19.5864 19.7225 19.6648 20.5073 19.1921 20.8563C18.7191 21.2051 18.0086 20.8871 16.5874 20.2509L16.2198 20.0863C15.8158 19.9055 15.614 19.8151 15.3998 19.8151C15.1857 19.8151 14.9839 19.9055 14.5799 20.0863L14.2122 20.2509C12.791 20.8871 12.0805 21.2051 11.6075 20.8563C11.1349 20.5073 11.2131 19.7225 11.3695 18.1527L11.4101 17.7467C11.4545 17.3005 11.4767 17.0775 11.4107 16.8707C11.3444 16.6639 11.1974 16.4968 10.9034 16.1624L10.6356 15.8581C9.60078 14.6815 9.08338 14.0933 9.26395 13.5288C9.44453 12.9642 10.2035 12.7973 11.7215 12.4633L12.1142 12.3769C12.5456 12.2821 12.7612 12.2346 12.9344 12.1068C13.1076 11.979 13.2187 11.7853 13.4406 11.3979L13.6428 11.0451Z" stroke="#06433F" stroke-width="2"/>
<path d="M29.7994 15C29.7994 22.732 23.3524 28.9999 15.3997 28.9999C7.44697 28.9999 1 22.732 1 15C1 7.26801 7.44697 1 15.3997 1C23.3524 1 29.7994 7.26801 29.7994 15Z" stroke="#06433F" stroke-width="2"/>
<path d="M5.8365 27.0001L4.52639 31.6461C3.23383 36.2297 2.58755 38.5215 3.44997 39.7763C3.75222 40.2159 4.15768 40.5689 4.62818 40.8017C5.9707 41.4663 8.04356 40.4163 12.1892 38.3161C13.5687 37.6173 14.2584 37.2679 14.9912 37.1919C15.2629 37.1637 15.5365 37.1637 15.8083 37.1919C16.541 37.2679 17.2308 37.6173 18.6102 38.3161C22.7559 40.4163 24.8289 41.4663 26.1713 40.8017C26.6418 40.5689 27.0472 40.2159 27.3494 39.7763C28.212 38.5215 27.5656 36.2297 26.2732 31.6461L24.963 27.0001" stroke="#06433F" stroke-width="2" stroke-linecap="round"/>
</svg>
