<svg width="36" height="38" viewBox="0 0 36 38" fill="none" xmlns="http://www.w3.org/2000/svg">
<path d="M27.6325 11.5954L28.4456 10.7823C29.7927 9.43519 31.9769 9.43519 33.324 10.7823C34.6712 12.1295 34.6712 14.3136 33.324 15.6607L32.511 16.4739M27.6325 11.5954C27.6325 11.5954 27.7342 13.3232 29.2586 14.8477C30.7832 16.3721 32.511 16.4739 32.511 16.4739M27.6325 11.5954L20.1576 19.0702C19.6512 19.5766 19.3981 19.8297 19.1804 20.1089C18.9237 20.4382 18.7035 20.7945 18.5238 21.1713C18.3716 21.491 18.2582 21.8305 18.0319 22.5098L17.307 24.6846L17.0724 25.3881M32.511 16.4739L25.0361 23.9488C24.5298 24.4551 24.2766 24.7083 23.9975 24.926C23.6682 25.1826 23.3118 25.4028 22.935 25.5825C22.6153 25.7348 22.2759 25.8481 21.5965 26.0744L19.4218 26.7994L18.7182 27.0339M17.0724 25.3881L16.8378 26.0918C16.7264 26.426 16.8135 26.7946 17.0626 27.0437C17.3117 27.2929 17.6803 27.3799 18.0145 27.2685L18.7182 27.0339M17.0724 25.3881L18.7182 27.0339" stroke="#06433F" stroke-width="2"/>
<path d="M9.77216 20.2983H14.1582" stroke="#06433F" stroke-width="2" stroke-linecap="round"/>
<path d="M9.77216 13.2808H21.1759" stroke="#06433F" stroke-width="2" stroke-linecap="round"/>
<path d="M9.77216 27.3159H12.4038" stroke="#06433F" stroke-width="2" stroke-linecap="round"/>
<path d="M30.5243 3.05543C28.469 1 25.1606 1 18.5444 1H15.0355C8.41916 1 5.111 1 3.05555 3.05543C1.00012 5.11088 1.00012 8.41904 1.00012 15.0354V22.0531C1.00012 28.6694 1.00012 31.9777 3.05555 34.033C5.111 36.0885 8.41916 36.0885 15.0355 36.0885H18.5444C25.1606 36.0885 28.469 36.0885 30.5243 34.033C32.1789 32.3784 32.5015 29.9122 32.5645 25.5619" stroke="#06433F" stroke-width="2" stroke-linecap="round"/>
</svg>
