<svg width="37" height="41" viewBox="0 0 37 41" fill="none" xmlns="http://www.w3.org/2000/svg">
<path d="M25.8407 4.82544C29.9967 4.84858 32.2475 5.03288 33.7157 6.50112C35.3948 8.18012 35.3948 10.8824 35.3948 16.287V27.752C35.3948 33.1566 35.3948 35.8591 33.7157 37.5379C32.0367 39.2169 29.3344 39.2169 23.9298 39.2169H12.4649C7.06024 39.2169 4.35793 39.2169 2.67893 37.5379C0.999924 35.8591 0.999924 33.1566 0.999924 27.752V16.287C0.999924 10.8824 0.999924 8.18012 2.67893 6.50112C4.14717 5.03288 6.39795 4.84858 10.554 4.82544" stroke="#06433F" stroke-width="2"/>
<path d="M15.331 23.9299H27.7514" stroke="#06433F" stroke-width="2" stroke-linecap="round"/>
<path d="M8.64317 23.9299H9.59859" stroke="#06433F" stroke-width="2" stroke-linecap="round"/>
<path d="M8.64317 17.2419H9.59859" stroke="#06433F" stroke-width="2" stroke-linecap="round"/>
<path d="M8.64317 30.6179H9.59859" stroke="#06433F" stroke-width="2" stroke-linecap="round"/>
<path d="M15.331 17.2419H27.7514" stroke="#06433F" stroke-width="2" stroke-linecap="round"/>
<path d="M15.331 30.6179H27.7514" stroke="#06433F" stroke-width="2" stroke-linecap="round"/>
<path d="M10.5541 3.86624C10.5541 2.28325 11.8373 1 13.4203 1H22.9744C24.5574 1 25.8407 2.28325 25.8407 3.86624V5.77706C25.8407 7.36005 24.5574 8.6433 22.9744 8.6433H13.4203C11.8373 8.6433 10.5541 7.36005 10.5541 5.77706V3.86624Z" stroke="#06433F" stroke-width="2"/>
</svg>
