<svg width="38" height="32" viewBox="0 0 38 32" fill="none" xmlns="http://www.w3.org/2000/svg">
<path d="M6.362 12.0329C2.78741 10.6031 1.00012 9.88817 1.00012 8.99978C1.00012 8.11139 2.78741 7.39647 6.362 5.96665L11.4172 3.94455C14.9918 2.51473 16.779 1.7998 19.0001 1.7998C21.2211 1.7998 23.0083 2.51473 26.5829 3.94455L31.6382 5.96665C35.2128 7.39647 37 8.11139 37 8.99978C37 9.88817 35.2128 10.6031 31.6382 12.0329L26.5829 14.0551C23.0083 15.4848 21.2211 16.1998 19.0001 16.1998C16.779 16.1998 14.9918 15.4848 11.4172 14.0551L6.362 12.0329Z" stroke="#06433F" stroke-width="2"/>
<path d="M7.77913 12.6001L6.362 13.1669C2.78741 14.5968 1.00012 15.3118 1.00012 16.2001C1.00012 17.0884 2.78741 17.8033 6.362 19.2333L11.4172 21.2554C14.9918 22.6851 16.779 23.4001 19.0001 23.4001C21.2211 23.4001 23.0083 22.6851 26.5829 21.2554L31.6382 19.2333C35.2128 17.8033 37 17.0884 37 16.2001C37 15.3118 35.2128 14.5968 31.6382 13.1669L30.221 12.6001" stroke="#06433F" stroke-width="2"/>
<path d="M7.77913 19.7998L6.362 20.3666C2.78741 21.7965 1.00012 22.5115 1.00012 23.3998C1.00012 24.2881 2.78741 25.003 6.362 26.433L11.4172 28.4551C14.9918 29.8848 16.779 30.5998 19.0001 30.5998C21.2211 30.5998 23.0083 29.8848 26.5829 28.4551L31.6382 26.433C35.2128 25.003 37 24.2881 37 23.3998C37 22.5115 35.2128 21.7965 31.6382 20.3666L30.221 19.7998" stroke="#06433F" stroke-width="2"/>
</svg>
