<svg width="31" height="38" viewBox="0 0 31 38" fill="none" xmlns="http://www.w3.org/2000/svg">
<path d="M1 11.8001C1 6.70888 1 4.16328 2.58164 2.58164C4.16328 1 6.70888 1 11.8001 1H19.0002C24.0914 1 26.6369 1 28.2186 2.58164C29.8003 4.16328 29.8003 6.70888 29.8003 11.8001V26.2003C29.8003 31.2914 29.8003 33.837 28.2186 35.4187C26.6369 37.0004 24.0914 37.0004 19.0002 37.0004H11.8001C6.70888 37.0004 4.16328 37.0004 2.58164 35.4187C1 33.837 1 31.2914 1 26.2003V11.8001Z" stroke="#06433F" stroke-width="2"/>
<path d="M29.6163 26.2002H8.01608C6.34211 26.2002 5.50512 26.2002 4.81841 26.3842C2.95489 26.8835 1.49933 28.3392 1 30.2025" stroke="#06433F" stroke-width="2"/>
<path d="M8.20007 10H22.6002" stroke="#06433F" stroke-width="2" stroke-linecap="round"/>
<path d="M8.20007 16.3003H17.2002" stroke="#06433F" stroke-width="2" stroke-linecap="round"/>
<path d="M28.9003 31.6001H8.20007" stroke="#06433F" stroke-width="2" stroke-linecap="round"/>
</svg>
