<svg width="38" height="37" viewBox="0 0 38 37" fill="none" xmlns="http://www.w3.org/2000/svg">
<path d="M1 18.4061C1 10.2008 1 6.09813 3.63604 3.54907C6.27207 1 10.5147 1 19 1C27.4852 1 31.7279 1 34.3639 3.54907C37 6.09813 37 10.2008 37 18.4061C37 26.6114 37 30.7142 34.3639 33.2631C31.7279 35.8123 27.4852 35.8123 19 35.8123C10.5147 35.8123 6.27207 35.8123 3.63604 33.2631C1 30.7142 1 26.6114 1 18.4061Z" stroke="#06433F" stroke-width="2"/>
<path d="M8.19995 25.0206L10.2571 27.1093L15.3999 21.8875" stroke="#06433F" stroke-width="2" stroke-linecap="round" stroke-linejoin="round"/>
<path d="M8.19995 12.8362L10.2571 14.925L15.3999 9.70312" stroke="#06433F" stroke-width="2" stroke-linecap="round" stroke-linejoin="round"/>
<path d="M20.8 13.1844H29.8" stroke="#06433F" stroke-width="2" stroke-linecap="round"/>
<path d="M20.8 25.3685H29.8" stroke="#06433F" stroke-width="2" stroke-linecap="round"/>
</svg>
