<svg width="16" height="16" viewBox="0 0 16 16" fill="none" xmlns="http://www.w3.org/2000/svg">
<path d="M8.12402 0.900391C9.1224 0.900433 10.0623 1.08917 10.9424 1.46875C11.8206 1.84754 12.5856 2.36227 13.2363 3.0127C13.8869 3.66305 14.4012 4.42792 14.7803 5.30566C15.16 6.18547 15.3496 7.12563 15.3496 8.12402C15.3496 9.1224 15.1608 10.0623 14.7812 10.9424C14.4025 11.8206 13.8877 12.5856 13.2373 13.2363C12.587 13.8869 11.8221 14.4012 10.9443 14.7803C10.0645 15.16 9.12437 15.3496 8.12598 15.3496C7.1276 15.3496 6.18769 15.1608 5.30762 14.7812C4.42938 14.4025 3.66435 13.8877 3.01367 13.2373C2.36307 12.587 1.84877 11.8221 1.46973 10.9443C1.08996 10.0645 0.900391 9.12437 0.900391 8.12598C0.900433 7.1276 1.08917 6.18769 1.46875 5.30762C1.84754 4.42938 2.36227 3.66435 3.0127 3.01367C3.66305 2.36307 4.42792 1.84877 5.30566 1.46973C6.18548 1.08996 7.12563 0.900391 8.12402 0.900391ZM8.125 2.22461C6.47596 2.22461 5.08281 2.7961 3.93945 3.93945C2.7961 5.08281 2.22461 6.47596 2.22461 8.125C2.22461 9.77404 2.7961 11.1672 3.93945 12.3105C5.08281 13.4539 6.47596 14.0254 8.125 14.0254C9.77404 14.0254 11.1672 13.4539 12.3105 12.3105C13.4539 11.1672 14.0254 9.77404 14.0254 8.125C14.0254 6.47596 13.4539 5.08281 12.3105 3.93945C11.1672 2.7961 9.77404 2.22461 8.125 2.22461ZM8.125 7.27539C8.30946 7.27543 8.46917 7.33846 8.59668 7.46582C8.72416 7.59335 8.78711 7.75297 8.78711 7.9375V11.125C8.78711 11.3095 8.72412 11.4692 8.59668 11.5967C8.46937 11.7242 8.30959 11.7871 8.125 11.7871C7.9405 11.7871 7.78082 11.7242 7.65332 11.5967C7.52577 11.4693 7.46289 11.3096 7.46289 11.125V7.9375C7.46289 7.75296 7.52592 7.59337 7.65332 7.46582C7.78066 7.33835 7.94038 7.27539 8.125 7.27539ZM8.125 4.78027C8.32175 4.78027 8.49116 4.84778 8.62695 4.9834C8.7627 5.11915 8.83101 5.28863 8.83105 5.48535C8.83105 5.68217 8.76275 5.85248 8.62695 5.98828C8.49122 6.12383 8.32163 6.19141 8.125 6.19141C7.92837 6.19141 7.75878 6.12383 7.62305 5.98828C7.48725 5.85248 7.41895 5.68217 7.41895 5.48535C7.41899 5.28863 7.4873 5.11915 7.62305 4.9834C7.75884 4.84778 7.92825 4.78027 8.125 4.78027Z" fill="#06433F" stroke="#06433F" stroke-width="0.2"/>
</svg>
