<svg width="30" height="30" viewBox="0 0 30 30" fill="none" xmlns="http://www.w3.org/2000/svg">
<path fill-rule="evenodd" clip-rule="evenodd" d="M0 15C0 6.71573 6.71573 0 15 0C23.2843 0 30 6.71573 30 15C30 23.2843 23.2843 30 15 30C6.71573 30 0 23.2843 0 15ZM7.6875 12.4688V22.5H10.875V12.4688H7.6875ZM7.5 9.28125C7.5 10.3125 8.25 11.0625 9.28125 11.0625C10.3125 11.0625 11.0625 10.3125 11.0625 9.28125C11.0625 8.25 10.3125 7.5 9.28125 7.5C8.34375 7.5 7.5 8.25 7.5 9.28125ZM19.3125 22.5H22.3125V16.3125C22.3125 13.2187 20.4375 12.1875 18.6562 12.1875C17.0625 12.1875 15.9375 13.2187 15.6562 13.875V12.4688H12.6562V22.5H15.8437V17.1563C15.8437 15.75 16.7812 15 17.7187 15C18.6562 15 19.3125 15.4688 19.3125 17.0625V22.5Z" fill="white"/>
</svg>
