<svg width="27" height="30" viewBox="0 0 27 30" fill="none" xmlns="http://www.w3.org/2000/svg">
<path d="M2.80142 26.3319C4.60271 28.3334 7.50185 28.3334 13.3001 28.3334C19.0983 28.3334 21.9976 28.3334 23.7989 26.3319C25.6001 24.3306 25.6001 21.1092 25.6001 14.6667C25.6001 8.22419 25.6001 5.00293 23.7989 3.0015C21.9976 1.00006 19.0983 1.00006 13.3001 1.00006C7.50185 1.00006 4.60271 1.00006 2.80142 3.0015C1.00012 5.00293 1.00012 8.22419 1.00012 14.6667C1.00012 21.1092 1.00012 24.3306 2.80142 26.3319Z" stroke="#06433F" stroke-width="2"/>
<path d="M6.46655 9.20013C6.46655 8.56464 6.46655 8.24691 6.5364 7.98622C6.72596 7.27877 7.27853 6.7262 7.98597 6.53665C8.24666 6.4668 8.5644 6.4668 9.19989 6.4668H17.3999C18.0354 6.4668 18.3531 6.4668 18.6138 6.53665C19.3213 6.7262 19.8738 7.27877 20.0634 7.98622C20.1332 8.24691 20.1332 8.56464 20.1332 9.20013C20.1332 9.83562 20.1332 10.1534 20.0634 10.414C19.8738 11.1215 19.3213 11.6741 18.6138 11.8636C18.3531 11.9335 18.0354 11.9335 17.3999 11.9335H9.19989C8.5644 11.9335 8.24666 11.9335 7.98597 11.8636C7.27853 11.6741 6.72596 11.1215 6.5364 10.414C6.46655 10.1534 6.46655 9.83562 6.46655 9.20013Z" stroke="#06433F" stroke-width="2"/>
<path d="M8.23547 15.7872C8.48228 15.7873 8.68274 15.9876 8.68274 16.2344C8.68263 16.4812 8.48221 16.6816 8.23547 16.6817C7.98864 16.6817 7.78832 16.4812 7.78821 16.2344C7.78821 15.9875 7.98857 15.7872 8.23547 15.7872Z" stroke="#06433F" stroke-width="2"/>
<path d="M8.23547 20.852C8.48228 20.8521 8.68274 21.0524 8.68274 21.2993C8.68263 21.546 8.48221 21.7464 8.23547 21.7465C7.98864 21.7465 7.78832 21.5461 7.78821 21.2993C7.78821 21.0524 7.98857 20.852 8.23547 20.852Z" stroke="#06433F" stroke-width="2"/>
<path d="M13.3 15.7872C13.5469 15.7873 13.7473 15.9876 13.7473 16.2344C13.7472 16.4812 13.5468 16.6816 13.3 16.6817C13.0532 16.6817 12.8529 16.4812 12.8528 16.2344C12.8528 15.9875 13.0531 15.7872 13.3 15.7872Z" stroke="#06433F" stroke-width="2"/>
<path d="M13.3 20.852C13.5469 20.8521 13.7473 21.0524 13.7473 21.2993C13.7472 21.546 13.5468 21.7464 13.3 21.7465C13.0532 21.7465 12.8529 21.5461 12.8528 21.2993C12.8528 21.0524 13.0531 20.852 13.3 20.852Z" stroke="#06433F" stroke-width="2"/>
<path d="M18.3646 15.7872C18.6114 15.7873 18.8119 15.9876 18.8119 16.2344C18.8118 16.4812 18.6114 16.6816 18.3646 16.6817C18.1178 16.6817 17.9175 16.4812 17.9174 16.2344C17.9174 15.9875 18.1177 15.7872 18.3646 15.7872Z" stroke="#06433F" stroke-width="2"/>
<path d="M18.3646 20.852C18.6114 20.8521 18.8119 21.0524 18.8119 21.2993C18.8118 21.546 18.6114 21.7464 18.3646 21.7465C18.1178 21.7465 17.9175 21.5461 17.9174 21.2993C17.9174 21.0524 18.1177 20.852 18.3646 20.852Z" stroke="#06433F" stroke-width="2"/>
</svg>
