<svg width="30" height="30" viewBox="0 0 30 30" fill="none" xmlns="http://www.w3.org/2000/svg">
<path fill-rule="evenodd" clip-rule="evenodd" d="M0 15C0 6.71573 6.71573 0 15 0C23.2843 0 30 6.71573 30 15C30 23.2843 23.2843 30 15 30C6.71573 30 0 23.2843 0 15Z" fill="white"/>
<path d="M14.4925 16.6509L9.24854 22.7281C9.1096 22.8874 8.9146 22.9689 8.71847 22.9689C8.55441 22.9689 8.38969 22.9118 8.25647 22.7956C7.96388 22.5402 7.93369 22.0961 8.18907 21.8035L13.5999 15.5352L14.4925 16.6509ZM16.4002 14.465L21.811 8.19673C22.0664 7.90413 22.0362 7.46004 21.7436 7.20466C21.4511 6.94929 21.0068 6.97948 20.7516 7.27207L15.5076 13.3492L16.4002 14.465Z" fill="#06433F"/>
<path d="M22.5469 22.9688H18.8906C18.677 22.9688 18.475 22.8716 18.3416 22.7048L6.90413 8.17359C6.73529 7.96256 6.70238 7.67334 6.81948 7.42978C6.93657 7.18622 7.18285 7.03125 7.45313 7.03125H11.1094C11.323 7.03125 11.525 7.12838 11.6584 7.29516L23.0959 21.8264C23.2647 22.0374 23.2976 22.3267 23.1805 22.5702C23.0634 22.8138 22.8172 22.9688 22.5469 22.9688ZM19.2286 21.5625H21.0839L10.7714 8.4375H8.9161L19.2286 21.5625Z" fill="#06433F"/>
</svg>
