<svg width="32" height="28" viewBox="0 0 32 28" fill="none" xmlns="http://www.w3.org/2000/svg">
<path d="M27.4707 18.6428H4.52941M27.4707 18.6428V7.11765C27.4707 4.23376 27.4707 2.79181 26.592 1.89591C25.7133 1 24.2991 1 21.4707 1H10.5294C7.70098 1 6.28676 1 5.40809 1.89591C4.52941 2.79181 4.52941 4.23376 4.52941 7.11765V18.6428M27.4707 18.6428L30.0866 21.3959C30.1534 21.4663 30.1869 21.5015 30.2181 21.5363C30.6997 22.0756 30.9765 22.7724 30.9985 23.5013C31 23.5486 31 23.5975 31 23.6954C31 23.9236 31 24.0377 30.994 24.134C30.8988 25.6716 29.6971 26.8968 28.1892 26.9939C28.0947 27 27.9828 27 27.759 27H4.24102C4.01722 27 3.90532 27 3.81082 26.9939C2.30297 26.8968 1.10123 25.6716 1.00597 24.134C1 24.0377 1 23.9236 1 23.6954C1 23.5975 1 23.5486 1.00144 23.5013C1.02354 22.7724 1.30033 22.0756 1.78191 21.5363C1.81312 21.5015 1.84657 21.4663 1.91332 21.3959L4.52941 18.6428" stroke="#06433F" stroke-width="2" stroke-linecap="round"/>
</svg>
