<svg width="16" height="16" viewBox="0 0 16 16" fill="none" xmlns="http://www.w3.org/2000/svg">
<path d="M8.00019 11.5625C8.15969 11.5625 8.29325 11.5086 8.40088 11.4007C8.50863 11.2929 8.5625 11.1594 8.5625 11V7.8125C8.5625 7.65313 8.50856 7.5195 8.40069 7.41163C8.29281 7.30387 8.15919 7.25 7.99981 7.25C7.84031 7.25 7.70675 7.30387 7.59913 7.41163C7.49137 7.5195 7.4375 7.65313 7.4375 7.8125V11C7.4375 11.1594 7.49144 11.2929 7.59931 11.4007C7.70719 11.5086 7.84081 11.5625 8.00019 11.5625ZM8 5.96637C8.17163 5.96637 8.3155 5.90831 8.43162 5.79219C8.54775 5.67606 8.60581 5.53219 8.60581 5.36056C8.60581 5.18894 8.54775 5.04506 8.43162 4.92894C8.3155 4.81294 8.17163 4.75494 8 4.75494C7.82838 4.75494 7.6845 4.81294 7.56838 4.92894C7.45225 5.04506 7.39419 5.18894 7.39419 5.36056C7.39419 5.53219 7.45225 5.67606 7.56838 5.79219C7.6845 5.90831 7.82838 5.96637 8 5.96637ZM8.00131 15.125C7.01581 15.125 6.0895 14.938 5.22237 14.564C4.35525 14.19 3.601 13.6824 2.95963 13.0413C2.31825 12.4002 1.81044 11.6462 1.43619 10.7795C1.06206 9.91275 0.875 8.98669 0.875 8.00131C0.875 7.01581 1.062 6.0895 1.436 5.22237C1.81 4.35525 2.31756 3.601 2.95869 2.95963C3.59981 2.31825 4.35375 1.81044 5.2205 1.43619C6.08725 1.06206 7.01331 0.875 7.99869 0.875C8.98419 0.875 9.9105 1.062 10.7776 1.436C11.6448 1.81 12.399 2.31756 13.0404 2.95869C13.6818 3.59981 14.1896 4.35375 14.5638 5.2205C14.9379 6.08725 15.125 7.01331 15.125 7.99869C15.125 8.98419 14.938 9.9105 14.564 10.7776C14.19 11.6448 13.6824 12.399 13.0413 13.0404C12.4002 13.6818 11.6462 14.1896 10.7795 14.5638C9.91275 14.9379 8.98669 15.125 8.00131 15.125ZM8 14C9.675 14 11.0938 13.4188 12.2563 12.2563C13.4188 11.0938 14 9.675 14 8C14 6.325 13.4188 4.90625 12.2563 3.74375C11.0938 2.58125 9.675 2 8 2C6.325 2 4.90625 2.58125 3.74375 3.74375C2.58125 4.90625 2 6.325 2 8C2 9.675 2.58125 11.0938 3.74375 12.2563C4.90625 13.4188 6.325 14 8 14Z" fill="#ADADAD"/>
</svg>
