<svg width="39" height="36" viewBox="0 0 39 36" fill="none" xmlns="http://www.w3.org/2000/svg">
<path d="M38.9364 0.868135C38.902 0.407151 38.4968 0.043216 37.9952 0.022593H37.9925C29.8864 -0.303735 22.6963 2.90375 16.2691 9.72631H3.62871C3.16671 9.72631 2.77994 10.0162 2.67038 10.4093L2.66906 10.4154L0.0290402 20.1203C0.01056 20.1858 0 20.2622 0 20.3399C0 20.8421 0.442203 21.2497 0.990008 21.2509H7.9887C7.55574 22.0128 7.1241 22.7782 6.69905 23.5825C6.63701 23.699 6.60005 23.8361 6.60005 23.9804C6.60005 24.2316 6.71093 24.4596 6.89046 24.6258L12.1705 29.4783C12.35 29.6421 12.5969 29.744 12.8701 29.744C13.0338 29.744 13.1869 29.7076 13.3229 29.6445L13.3176 29.6469C14.1642 29.253 15.005 28.8531 15.8401 28.4471V35.0902C15.8401 35.0914 15.8401 35.0914 15.8401 35.0926C15.8401 35.5936 16.2823 36 16.8275 36C16.8288 36 16.8288 36 16.8301 36C16.9159 36 16.9978 35.9903 17.077 35.9721L17.0691 35.9733L27.6291 33.5471C28.0634 33.444 28.3789 33.0873 28.3789 32.6639V21.0362C35.1149 15.9266 39.5924 9.57346 38.9364 0.870562V0.868135ZM2.25722 19.4312L4.40224 11.546H14.6442C12.713 13.8376 10.8637 16.4154 9.23083 19.1183L9.05791 19.4312H2.25722ZM26.3989 31.9506L17.8188 33.9219V27.4548C21.132 25.7892 23.9358 24.1345 26.6075 22.3221L26.3989 22.4568V31.9506ZM13.0615 27.7217L8.78995 23.796C16.7351 9.02028 25.9329 1.81922 36.8719 1.81922L37.0091 1.82043C37.4421 14.3507 25.8669 21.6986 13.0615 27.7217ZM28.7089 6.08696C26.7038 6.08696 25.0789 7.58031 25.0789 9.42304C25.0789 11.2658 26.7038 12.7591 28.7089 12.7591C30.714 12.7591 32.3389 11.2658 32.3389 9.42304C32.3363 7.58152 30.7127 6.08939 28.7089 6.08696ZM28.7089 10.9394C27.7981 10.9394 27.0589 10.2601 27.0589 9.42304C27.0589 8.58599 27.7981 7.90664 28.7089 7.90664C29.6197 7.90664 30.3589 8.58599 30.3589 9.42304C30.3576 10.2601 29.6197 10.9382 28.7089 10.9394Z" fill="#06433F"/>
</svg>
