<svg width="9" height="5" viewBox="0 0 9 5" fill="none" xmlns="http://www.w3.org/2000/svg">
<path d="M4.49804 5C4.39653 5 4.30204 4.98401 4.21458 4.95204C4.12711 4.92007 4.04392 4.86527 3.96502 4.78763L0.179094 1.05564C0.0625631 0.940628 0.00289359 0.79607 8.56148e-05 0.621964C-0.00258196 0.447997 0.0570875 0.30081 0.179094 0.180403C0.301241 0.0601343 0.449221 0 0.623035 0C0.796849 0 0.944829 0.0601343 1.06698 0.180403L4.49804 3.5628L7.92911 0.180403C8.04578 0.0655318 8.19243 0.00671239 8.36905 0.00394441C8.54553 0.00131484 8.69484 0.0601343 8.81699 0.180403C8.939 0.30081 9 0.446682 9 0.61802C9 0.789357 8.939 0.93523 8.81699 1.05564L5.03107 4.78763C4.95216 4.86527 4.86898 4.92007 4.78151 4.95204C4.69404 4.98401 4.59955 5 4.49804 5Z" fill="white"/>
</svg>
