<svg width="5" height="6" viewBox="0 0 5 6" fill="none" xmlns="http://www.w3.org/2000/svg">
<path d="M0.455 5.54C0.3325 5.54 0.226 5.50958 0.1355 5.44873C0.045167 5.38789 0 5.3077 0 5.20817V0.331834C0 0.232303 0.0456669 0.152114 0.137 0.0912688C0.228167 0.0304233 0.334583 0 0.45625 0C0.48675 0 0.592334 0.0343412 0.773 0.103022L3.924 2.4176C3.9965 2.47073 4.04942 2.5257 4.08275 2.58251C4.11608 2.63931 4.13275 2.70181 4.13275 2.77C4.13275 2.83819 4.11608 2.90069 4.08275 2.95749C4.04942 3.0143 3.9965 3.06927 3.924 3.1224L0.773 5.43716C0.7295 5.46899 0.680917 5.49409 0.62725 5.51245C0.57375 5.53082 0.516334 5.54 0.455 5.54Z" fill="#374151"/>
</svg>
