<svg width="30" height="30" viewBox="0 0 30 30" fill="none" xmlns="http://www.w3.org/2000/svg">
<path d="M17.4375 15L13.5 12.75V17.25L17.4375 15Z" fill="white"/>
<path fill-rule="evenodd" clip-rule="evenodd" d="M0 15C0 6.71573 6.71573 0 15 0C23.2843 0 30 6.71573 30 15C30 23.2843 23.2843 30 15 30C6.71573 30 0 23.2843 0 15ZM20.8125 10.0313C21.4688 10.2188 21.9375 10.6875 22.125 11.3438C22.5 12.5625 22.5 15 22.5 15C22.5 15 22.5 17.4375 22.2188 18.6563C22.0313 19.3125 21.5625 19.7812 20.9062 19.9688C19.6875 20.25 15 20.25 15 20.25C15 20.25 10.2187 20.25 9.09375 19.9688C8.4375 19.7812 7.96875 19.3125 7.78125 18.6563C7.5 17.4375 7.5 15 7.5 15C7.5 15 7.5 12.5625 7.6875 11.3438C7.875 10.6875 8.34376 10.2188 9.00001 10.0313C10.2188 9.75 14.9062 9.75 14.9062 9.75C14.9062 9.75 19.6875 9.75 20.8125 10.0313Z" fill="white"/>
</svg>
