<svg width="63" height="51" viewBox="0 0 63 51" fill="none" xmlns="http://www.w3.org/2000/svg">
<path fill-rule="evenodd" clip-rule="evenodd" d="M28.7729 2.27917C33.3909 3.05359 37.4696 4.71776 41.8766 6.3083C48.4973 8.69775 57.3336 7.88811 61.0218 13.9181C64.679 19.8973 62.8245 28.4728 59.0417 34.3722C55.536 39.8394 47.9391 40.0521 42.2655 43.1688C37.5941 45.735 34.0944 50.9977 28.7729 51C23.451 51.0022 19.8212 45.9615 15.2722 43.1801C10.1602 40.0545 2.61371 39.3529 0.506698 33.717C-1.59723 28.0893 3.40279 22.4883 5.42064 16.8288C7.3584 11.3939 7.18493 4.34683 12.0616 1.3084C16.9255 -1.72202 23.1309 1.33303 28.7729 2.27917Z" fill="url(#paint0_linear_3_15695)"/>
<defs>
<linearGradient id="paint0_linear_3_15695" x1="1.18433e-06" y1="25.5" x2="63" y2="25.5" gradientUnits="userSpaceOnUse">
<stop stop-color="white"/>
<stop offset="0.418269" stop-color="white"/>
<stop offset="1" stop-color="white"/>
</linearGradient>
</defs>
</svg>
